<svg xmlns="http://www.w3.org/2000/svg" viewBox="0 0 640 400" role="img" aria-label="Almacenamiento"><rect width="640" height="400" fill="#101319"/><path d="M40 0V400" stroke="#1e2430" stroke-width="1"/><path d="M80 0V400" stroke="#1e2430" stroke-width="1"/><path d="M120 0V400" stroke="#1e2430" stroke-width="1"/><path d="M160 0V400" stroke="#1e2430" stroke-width="1"/><path d="M200 0V400" stroke="#1e2430" stroke-width="1"/><path d="M240 0V400" stroke="#1e2430" stroke-width="1"/><path d="M280 0V400" stroke="#1e2430" stroke-width="1"/><path d="M320 0V400" stroke="#1e2430" stroke-width="1"/><path d="M360 0V400" stroke="#1e2430" stroke-width="1"/><path d="M400 0V400" stroke="#1e2430" stroke-width="1"/><path d="M440 0V400" stroke="#1e2430" stroke-width="1"/><path d="M480 0V400" stroke="#1e2430" stroke-width="1"/><path d="M520 0V400" stroke="#1e2430" stroke-width="1"/><path d="M560 0V400" stroke="#1e2430" stroke-width="1"/><path d="M600 0V400" stroke="#1e2430" stroke-width="1"/><path d="M0 40H640" stroke="#1e2430" stroke-width="1"/><path d="M0 80H640" stroke="#1e2430" stroke-width="1"/><path d="M0 120H640" stroke="#1e2430" stroke-width="1"/><path d="M0 160H640" stroke="#1e2430" stroke-width="1"/><path d="M0 200H640" stroke="#1e2430" stroke-width="1"/><path d="M0 240H640" stroke="#1e2430" stroke-width="1"/><path d="M0 280H640" stroke="#1e2430" stroke-width="1"/><path d="M0 320H640" stroke="#1e2430" stroke-width="1"/><path d="M0 360H640" stroke="#1e2430" stroke-width="1"/><rect x="120" y="120" width="300" height="70" rx="8" fill="#241c10" stroke="#f0a33c" stroke-width="3"/><rect x="140" y="138" width="40" height="34" rx="4" fill="#f0a33c" opacity=".35"/><rect x="194" y="138" width="40" height="34" rx="4" fill="#f0a33c" opacity=".35"/><rect x="248" y="138" width="40" height="34" rx="4" fill="#f0a33c" opacity=".35"/><rect x="302" y="138" width="40" height="34" rx="4" fill="#f0a33c" opacity=".35"/><rect x="424" y="132" width="7" height="46" rx="2" fill="#f0a33c" opacity=".7"/><rect x="436" y="132" width="7" height="46" rx="2" fill="#f0a33c" opacity=".7"/><rect x="448" y="132" width="7" height="46" rx="2" fill="#f0a33c" opacity=".7"/><rect x="460" y="132" width="7" height="46" rx="2" fill="#f0a33c" opacity=".7"/><rect x="472" y="132" width="7" height="46" rx="2" fill="#f0a33c" opacity=".7"/><rect x="484" y="132" width="7" height="46" rx="2" fill="#f0a33c" opacity=".7"/><rect x="150" y="214" width="260" height="96" rx="10" fill="#241c10" stroke="#f0a33c" stroke-width="2" opacity=".8"/><circle cx="280" cy="262" r="30" fill="none" stroke="#f0a33c" stroke-width="3" opacity=".6"/><circle cx="280" cy="262" r="6" fill="#f0a33c" opacity=".8"/><text x="32" y="372" fill="#cbd3e1" font-family="system-ui,sans-serif" font-size="24" font-weight="600">Almacenamiento</text></svg>