<svg xmlns="http://www.w3.org/2000/svg" viewBox="0 0 640 400" role="img" aria-label="Gabinete"><rect width="640" height="400" fill="#101319"/><path d="M40 0V400" stroke="#1e2430" stroke-width="1"/><path d="M80 0V400" stroke="#1e2430" stroke-width="1"/><path d="M120 0V400" stroke="#1e2430" stroke-width="1"/><path d="M160 0V400" stroke="#1e2430" stroke-width="1"/><path d="M200 0V400" stroke="#1e2430" stroke-width="1"/><path d="M240 0V400" stroke="#1e2430" stroke-width="1"/><path d="M280 0V400" stroke="#1e2430" stroke-width="1"/><path d="M320 0V400" stroke="#1e2430" stroke-width="1"/><path d="M360 0V400" stroke="#1e2430" stroke-width="1"/><path d="M400 0V400" stroke="#1e2430" stroke-width="1"/><path d="M440 0V400" stroke="#1e2430" stroke-width="1"/><path d="M480 0V400" stroke="#1e2430" stroke-width="1"/><path d="M520 0V400" stroke="#1e2430" stroke-width="1"/><path d="M560 0V400" stroke="#1e2430" stroke-width="1"/><path d="M600 0V400" stroke="#1e2430" stroke-width="1"/><path d="M0 40H640" stroke="#1e2430" stroke-width="1"/><path d="M0 80H640" stroke="#1e2430" stroke-width="1"/><path d="M0 120H640" stroke="#1e2430" stroke-width="1"/><path d="M0 160H640" stroke="#1e2430" stroke-width="1"/><path d="M0 200H640" stroke="#1e2430" stroke-width="1"/><path d="M0 240H640" stroke="#1e2430" stroke-width="1"/><path d="M0 280H640" stroke="#1e2430" stroke-width="1"/><path d="M0 320H640" stroke="#1e2430" stroke-width="1"/><path d="M0 360H640" stroke="#1e2430" stroke-width="1"/><rect x="196" y="70" width="248" height="280" rx="14" fill="#171a21" stroke="#9aa4b2" stroke-width="3"/><rect x="300" y="86" width="128" height="248" rx="8" fill="#7c5cff" opacity=".12" stroke="#7c5cff" stroke-width="2"/><circle cx="214" cy="110" r="3.2" fill="#9aa4b2" opacity=".45"/><circle cx="230" cy="110" r="3.2" fill="#9aa4b2" opacity=".45"/><circle cx="246" cy="110" r="3.2" fill="#9aa4b2" opacity=".45"/><circle cx="262" cy="110" r="3.2" fill="#9aa4b2" opacity=".45"/><circle cx="278" cy="110" r="3.2" fill="#9aa4b2" opacity=".45"/><circle cx="214" cy="126" r="3.2" fill="#9aa4b2" opacity=".45"/><circle cx="230" cy="126" r="3.2" fill="#9aa4b2" opacity=".45"/><circle cx="246" cy="126" r="3.2" fill="#9aa4b2" opacity=".45"/><circle cx="262" cy="126" r="3.2" fill="#9aa4b2" opacity=".45"/><circle cx="278" cy="126" r="3.2" fill="#9aa4b2" opacity=".45"/><circle cx="214" cy="142" r="3.2" fill="#9aa4b2" opacity=".45"/><circle cx="230" cy="142" r="3.2" fill="#9aa4b2" opacity=".45"/><circle cx="246" cy="142" r="3.2" fill="#9aa4b2" opacity=".45"/><circle cx="262" cy="142" r="3.2" fill="#9aa4b2" opacity=".45"/><circle cx="278" cy="142" r="3.2" fill="#9aa4b2" opacity=".45"/><circle cx="214" cy="158" r="3.2" fill="#9aa4b2" opacity=".45"/><circle cx="230" cy="158" r="3.2" fill="#9aa4b2" opacity=".45"/><circle cx="246" cy="158" r="3.2" fill="#9aa4b2" opacity=".45"/><circle cx="262" cy="158" r="3.2" fill="#9aa4b2" opacity=".45"/><circle cx="278" cy="158" r="3.2" fill="#9aa4b2" opacity=".45"/><circle cx="214" cy="174" r="3.2" fill="#9aa4b2" opacity=".45"/><circle cx="230" cy="174" r="3.2" fill="#9aa4b2" opacity=".45"/><circle cx="246" cy="174" r="3.2" fill="#9aa4b2" opacity=".45"/><circle cx="262" cy="174" r="3.2" fill="#9aa4b2" opacity=".45"/><circle cx="278" cy="174" r="3.2" fill="#9aa4b2" opacity=".45"/><circle cx="214" cy="190" r="3.2" fill="#9aa4b2" opacity=".45"/><circle cx="230" cy="190" r="3.2" fill="#9aa4b2" opacity=".45"/><circle cx="246" cy="190" r="3.2" fill="#9aa4b2" opacity=".45"/><circle cx="262" cy="190" r="3.2" fill="#9aa4b2" opacity=".45"/><circle cx="278" cy="190" r="3.2" fill="#9aa4b2" opacity=".45"/><circle cx="214" cy="206" r="3.2" fill="#9aa4b2" opacity=".45"/><circle cx="230" cy="206" r="3.2" fill="#9aa4b2" opacity=".45"/><circle cx="246" cy="206" r="3.2" fill="#9aa4b2" opacity=".45"/><circle cx="262" cy="206" r="3.2" fill="#9aa4b2" opacity=".45"/><circle cx="278" cy="206" r="3.2" fill="#9aa4b2" opacity=".45"/><circle cx="214" cy="222" r="3.2" fill="#9aa4b2" opacity=".45"/><circle cx="230" cy="222" r="3.2" fill="#9aa4b2" opacity=".45"/><circle cx="246" cy="222" r="3.2" fill="#9aa4b2" opacity=".45"/><circle cx="262" cy="222" r="3.2" fill="#9aa4b2" opacity=".45"/><circle cx="278" cy="222" r="3.2" fill="#9aa4b2" opacity=".45"/><circle cx="364" cy="150" r="34" fill="none" stroke="#7c5cff" stroke-width="3" opacity=".5"/><circle cx="364" cy="250" r="34" fill="none" stroke="#22d3a6" stroke-width="3" opacity=".5"/><rect x="214" y="300" width="60" height="10" rx="3" fill="#9aa4b2" opacity=".5"/><text x="32" y="372" fill="#cbd3e1" font-family="system-ui,sans-serif" font-size="24" font-weight="600">Gabinete</text></svg>