<svg xmlns="http://www.w3.org/2000/svg" viewBox="0 0 640 400" role="img" aria-label="Perifericos"><rect width="640" height="400" fill="#101319"/><path d="M40 0V400" stroke="#1e2430" stroke-width="1"/><path d="M80 0V400" stroke="#1e2430" stroke-width="1"/><path d="M120 0V400" stroke="#1e2430" stroke-width="1"/><path d="M160 0V400" stroke="#1e2430" stroke-width="1"/><path d="M200 0V400" stroke="#1e2430" stroke-width="1"/><path d="M240 0V400" stroke="#1e2430" stroke-width="1"/><path d="M280 0V400" stroke="#1e2430" stroke-width="1"/><path d="M320 0V400" stroke="#1e2430" stroke-width="1"/><path d="M360 0V400" stroke="#1e2430" stroke-width="1"/><path d="M400 0V400" stroke="#1e2430" stroke-width="1"/><path d="M440 0V400" stroke="#1e2430" stroke-width="1"/><path d="M480 0V400" stroke="#1e2430" stroke-width="1"/><path d="M520 0V400" stroke="#1e2430" stroke-width="1"/><path d="M560 0V400" stroke="#1e2430" stroke-width="1"/><path d="M600 0V400" stroke="#1e2430" stroke-width="1"/><path d="M0 40H640" stroke="#1e2430" stroke-width="1"/><path d="M0 80H640" stroke="#1e2430" stroke-width="1"/><path d="M0 120H640" stroke="#1e2430" stroke-width="1"/><path d="M0 160H640" stroke="#1e2430" stroke-width="1"/><path d="M0 200H640" stroke="#1e2430" stroke-width="1"/><path d="M0 240H640" stroke="#1e2430" stroke-width="1"/><path d="M0 280H640" stroke="#1e2430" stroke-width="1"/><path d="M0 320H640" stroke="#1e2430" stroke-width="1"/><path d="M0 360H640" stroke="#1e2430" stroke-width="1"/><rect x="112" y="132" width="330" height="140" rx="10" fill="#26101d" stroke="#f45d9b" stroke-width="3"/><rect x="128" y="150" width="20" height="24" rx="4" fill="#f45d9b" opacity=".35"/><rect x="154" y="150" width="20" height="24" rx="4" fill="#f45d9b" opacity=".35"/><rect x="180" y="150" width="20" height="24" rx="4" fill="#f45d9b" opacity=".35"/><rect x="206" y="150" width="20" height="24" rx="4" fill="#f45d9b" opacity=".35"/><rect x="232" y="150" width="20" height="24" rx="4" fill="#f45d9b" opacity=".35"/><rect x="258" y="150" width="20" height="24" rx="4" fill="#f45d9b" opacity=".35"/><rect x="284" y="150" width="20" height="24" rx="4" fill="#f45d9b" opacity=".35"/><rect x="310" y="150" width="20" height="24" rx="4" fill="#f45d9b" opacity=".35"/><rect x="336" y="150" width="20" height="24" rx="4" fill="#f45d9b" opacity=".35"/><rect x="362" y="150" width="20" height="24" rx="4" fill="#f45d9b" opacity=".35"/><rect x="388" y="150" width="20" height="24" rx="4" fill="#f45d9b" opacity=".35"/><rect x="414" y="150" width="20" height="24" rx="4" fill="#f45d9b" opacity=".35"/><rect x="128" y="180" width="20" height="24" rx="4" fill="#f45d9b" opacity=".35"/><rect x="154" y="180" width="20" height="24" rx="4" fill="#f45d9b" opacity=".35"/><rect x="180" y="180" width="20" height="24" rx="4" fill="#f45d9b" opacity=".35"/><rect x="206" y="180" width="20" height="24" rx="4" fill="#f45d9b" opacity=".35"/><rect x="232" y="180" width="20" height="24" rx="4" fill="#f45d9b" opacity=".35"/><rect x="258" y="180" width="20" height="24" rx="4" fill="#f45d9b" opacity=".35"/><rect x="284" y="180" width="20" height="24" rx="4" fill="#f45d9b" opacity=".35"/><rect x="310" y="180" width="20" height="24" rx="4" fill="#f45d9b" opacity=".35"/><rect x="336" y="180" width="20" height="24" rx="4" fill="#f45d9b" opacity=".35"/><rect x="362" y="180" width="20" height="24" rx="4" fill="#f45d9b" opacity=".35"/><rect x="388" y="180" width="20" height="24" rx="4" fill="#f45d9b" opacity=".35"/><rect x="414" y="180" width="20" height="24" rx="4" fill="#f45d9b" opacity=".35"/><rect x="128" y="210" width="20" height="24" rx="4" fill="#f45d9b" opacity=".35"/><rect x="154" y="210" width="20" height="24" rx="4" fill="#f45d9b" opacity=".35"/><rect x="180" y="210" width="20" height="24" rx="4" fill="#f45d9b" opacity=".35"/><rect x="206" y="210" width="20" height="24" rx="4" fill="#f45d9b" opacity=".35"/><rect x="232" y="210" width="20" height="24" rx="4" fill="#f45d9b" opacity=".35"/><rect x="258" y="210" width="20" height="24" rx="4" fill="#f45d9b" opacity=".35"/><rect x="284" y="210" width="20" height="24" rx="4" fill="#f45d9b" opacity=".35"/><rect x="310" y="210" width="20" height="24" rx="4" fill="#f45d9b" opacity=".35"/><rect x="336" y="210" width="20" height="24" rx="4" fill="#f45d9b" opacity=".35"/><rect x="362" y="210" width="20" height="24" rx="4" fill="#f45d9b" opacity=".35"/><rect x="388" y="210" width="20" height="24" rx="4" fill="#f45d9b" opacity=".35"/><rect x="414" y="210" width="20" height="24" rx="4" fill="#f45d9b" opacity=".35"/><rect x="128" y="240" width="20" height="24" rx="4" fill="#f45d9b" opacity=".35"/><rect x="154" y="240" width="20" height="24" rx="4" fill="#f45d9b" opacity=".35"/><rect x="180" y="240" width="20" height="24" rx="4" fill="#f45d9b" opacity=".35"/><rect x="206" y="240" width="20" height="24" rx="4" fill="#f45d9b" opacity=".35"/><rect x="232" y="240" width="20" height="24" rx="4" fill="#f45d9b" opacity=".35"/><rect x="258" y="240" width="20" height="24" rx="4" fill="#f45d9b" opacity=".35"/><rect x="284" y="240" width="20" height="24" rx="4" fill="#f45d9b" opacity=".35"/><rect x="310" y="240" width="20" height="24" rx="4" fill="#f45d9b" opacity=".35"/><rect x="336" y="240" width="20" height="24" rx="4" fill="#f45d9b" opacity=".35"/><rect x="362" y="240" width="20" height="24" rx="4" fill="#f45d9b" opacity=".35"/><rect x="388" y="240" width="20" height="24" rx="4" fill="#f45d9b" opacity=".35"/><rect x="414" y="240" width="20" height="24" rx="4" fill="#f45d9b" opacity=".35"/><path d="M478 140 C520 140 534 176 534 214 C534 256 512 278 484 278 C456 278 440 256 440 214 C440 176 456 140 478 140 Z" fill="#26101d" stroke="#f45d9b" stroke-width="3"/><path d="M487 150 V196" stroke="#f45d9b" stroke-width="4" opacity=".6"/><text x="32" y="372" fill="#cbd3e1" font-family="system-ui,sans-serif" font-size="24" font-weight="600">Perifericos</text></svg>